<?xml version="1.0" standalone="no"?>
<!DOCTYPE svg PUBLIC "-//W3C//DTD SVG 20010904//EN"
 "http://www.w3.org/TR/2001/REC-SVG-20010904/DTD/svg10.dtd">
<svg version="1.0" xmlns="http://www.w3.org/2000/svg"
 width="960.000000pt" height="960.000000pt" viewBox="0 0 960.000000 960.000000"
 preserveAspectRatio="xMidYMid meet">
<metadata>
Created by potrace 1.11, written by Peter Selinger 2001-2013
</metadata>
<g transform="translate(0.000000,960.000000) scale(0.100000,-0.100000)"
fill="#000000" stroke="none">
<path d="M0 4800 l0 -4800 4800 0 4800 0 0 4800 0 4800 -4800 0 -4800 0 0
-4800z m4342 1485 c249 -371 455 -674 458 -674 3 0 52 71 110 157 58 86 262
390 454 675 l348 517 544 0 543 0 -83 -122 c-45 -68 -218 -323 -383 -568 -165
-245 -453 -673 -641 -952 -188 -278 -342 -511 -342 -517 0 -8 737 -1107 1307
-1948 l144 -213 -545 0 -545 0 -453 675 c-249 371 -455 674 -458 674 -3 0
-105 -149 -227 -332 -122 -183 -326 -486 -453 -674 l-231 -343 -545 0 -545 0
29 43 c16 23 165 245 332 492 167 248 480 712 697 1032 216 320 393 586 393
592 0 6 -113 178 -252 383 -138 205 -451 670 -696 1033 -245 363 -458 679
-474 703 l-29 42 545 0 545 0 453 -675z"/>
</g>
</svg>
